<?xml version="1.0"?>
<svg width="640" height="480" xmlns="http://www.w3.org/2000/svg" xmlns:svg="http://www.w3.org/2000/svg">
 <!-- Created with SVG-edit - https://github.com/SVG-Edit/svgedit-->
 <g class="layer">
  <title>Layer 1</title>
  <path d="m264.047492,295.677509l0,-138.12501l0,0c0,-5.868031 4.980839,-10.625001 11.125001,-10.625001l133.500016,0c6.144174,0 11.125001,4.75697 11.125001,10.625001c0,5.868019 -4.980828,10.625001 -11.125001,10.625001l-11.125001,0l0,138.12501c0,5.868031 -4.980833,10.625001 -11.125001,10.625001l-133.500016,0l0,0c-6.144174,0 -11.125001,-4.75697 -11.125001,-10.625001c0,-5.868031 4.980828,-10.625001 11.125001,-10.625001l11.125001,0zm22.250003,-148.750011l0,0c6.144162,0 11.125001,4.75697 11.125001,10.625001c0,5.868019 -4.980839,10.625001 -11.125001,10.625001c-3.072078,0 -5.562501,-2.378493 -5.562501,-5.3125c0,-2.934013 2.490423,-5.3125 5.562501,-5.3125l11.125001,0m111.250013,10.625001l-122.375014,0m-22.250003,127.500009l0,0c3.072078,0 5.562501,2.378493 5.562501,5.3125c0,2.934007 -2.490423,5.3125 -5.562501,5.3125l11.125001,0m-11.125001,10.625001l0,0c6.144162,0 11.125001,-4.75697 11.125001,-10.625001l0,-10.625001" fill="#ffffd6" id="svg_1" stroke="#000000" stroke-width="5"/>
  <path d="m411.778744,311.680718c-2.883368,-3.234673 4.51632,-3.321257 3.353796,-6.906954c2.125495,-4.751527 7.652005,-7.627608 8.46587,-13.026994c-2.241438,-1.500645 -3.530562,-5.129891 0.745723,-4.699025c3.135967,-2.268445 2.744036,-6.910537 3.687122,-10.317163c0.88345,-5.498369 1.083513,-11.063487 1.462976,-16.60703c-3.628506,-0.267836 -7.346768,-0.081272 -10.882294,-0.974767c0.101698,-3.686686 7.29566,-2.272097 7.623084,-5.750918c5.230686,-0.090835 0.289726,-7.598729 -1.840405,-9.389988c-2.726545,-3.021747 -4.542564,-7.79189 -2.469811,-11.523699c2.964713,-1.892978 9.668173,-0.740707 9.365177,-5.71542c-2.016254,-1.104477 -4.576191,-0.403091 -6.836023,-0.598416c0.138975,-2.319712 0.277947,-4.639421 0.416922,-6.959134c2.988595,-0.220913 5.977198,-0.441842 8.965793,-0.662775c-1.51697,-1.515108 -3.787285,-2.630143 -4.355404,-4.773343c1.932401,-3.052691 6.589623,-2.783216 9.926002,-2.754354c3.244255,-0.215045 9.159344,1.864538 4.737225,5.214173c-0.358417,0.822583 -3.846632,2.867886 -1.690964,2.644909c2.760075,0 5.520144,0 8.280212,0c-0.007932,2.267728 -0.071368,4.557992 0.482824,6.777237c-2.106851,1.507828 -8.938803,-1.287989 -6.993528,3.364401c2.190366,1.94512 5.544993,1.893788 8.323174,2.750427c1.620467,0.155579 2.909548,0.561379 2.325591,2.381665c0.30458,3.37965 -0.582716,6.779383 -3.000078,9.344882c-1.711203,2.677029 -5.554538,6.028361 -4.416784,9.127049c2.152585,-0.336728 3.881768,1.021529 2.162458,2.548999c1.764412,1.255444 7.97758,0.967943 6.633755,4.110992c-3.147906,1.00138 -6.529552,0.584192 -9.795462,0.686378c0.869587,8.579418 2.071947,17.159648 4.081011,25.561122c1.173871,1.864274 5.836931,3.297102 2.010013,5.727514c-1.428203,4.526057 3.133554,7.914993 5.998532,10.819926c3.150018,2.2672 1.621694,6.829002 6.078043,7.556555c3.50957,3.267102 -4.818388,3.180121 -6.956497,3.187246c-14.154531,0.14667 -28.32433,0.351871 -42.473323,-0.08645c-1.158264,-0.140478 -2.589265,-0.108341 -3.414727,-1.05705l-0.000004,0.000003z" fill="#000000" id="svg_3" stroke="#000000" stroke-dasharray="null" stroke-linecap="null" stroke-linejoin="null" stroke-width="5"/>
  <text fill="#000000" font-family="serif" font-size="24" id="svg_4" stroke="#000000" stroke-dasharray="null" stroke-linecap="null" stroke-linejoin="null" stroke-width="0" text-anchor="middle" transform="matrix(4.17279 0 0 3.37131 -1281.87 -483.76)" x="386.29561" xml:space="preserve" y="220.719713">JC</text>
  <path d="m205.526361,252.460802c-2.98045,0.112515 -7.342566,-1.597005 -4.295139,-5.410437c3.317815,-1.451788 -0.589689,-6.263714 2.735336,-8.530406c2.668899,-4.218702 6.296048,-8.071223 7.390642,-13.223034c-0.169987,-3.493958 -3.926966,-5.561729 -2.134557,-9.429029c-1.758499,-6.188651 -1.352099,-13.311831 1.857914,-18.874911c2.725736,-5.166976 6.035114,-10.641779 5.686092,-16.894534c-3.418602,1.584721 -7.037226,2.973173 -10.799559,2.253489c-3.537131,-0.364667 -6.709419,2.814825 -10.317438,1.086006c-3.657368,-0.843511 -5.832816,-6.272112 -3.105865,-9.44547c2.980032,-2.825728 7.358457,-2.916667 10.200517,-6.070253c3.749782,-3.44821 7.218143,-8.112084 12.386277,-8.721679c2.2842,-0.580525 3.263923,-3.128536 4.52833,-5.03804c1.05075,3.02851 2.878277,5.706508 5.628839,7.049116c5.593278,3.596509 6.985599,11.199964 9.048245,17.450391c1.525094,4.895123 2.795689,10.005988 5.34954,14.376117c0.027152,2.097375 -2.839486,2.983879 -0.903277,5.442661c1.006982,6.668595 1.050328,13.49728 0.961059,20.243808c-1.698345,3.301555 -3.245319,6.986565 -0.979785,10.775537c1.513322,4.631171 5.282192,7.66858 7.136439,12.038788c1.048167,2.262889 -2.043418,5.548189 1.808457,4.979088c3.517666,2.065954 0.677257,7.108843 -2.821342,5.641775c-13.11109,0.370103 -26.251057,0.739674 -39.360727,0.301022l0.000003,-0.000007z" fill="#000000" id="svg_5" stroke="#000000" stroke-dasharray="null" stroke-linecap="null" stroke-linejoin="null" stroke-width="5"/>
 </g>
</svg>